<svg width="1827" height="294" viewBox="0 0 1827 294" fill="none" xmlns="http://www.w3.org/2000/svg">
<g clip-path="url(#clip0_138_421)">
<mask id="path-1-inside-1_138_421" fill="white">
<path d="M0 0H1827V294H0V0Z"/>
</mask>
<path d="M0 0H1827V294H0V0Z" fill="#E2E2E2"/>
<rect x="52" y="26" width="242.34" height="242.34" rx="121.17" fill="#FF7608"/>
<g filter="url(#filter0_d_138_421)">
<path d="M182.801 73.0137C190.7 73.0137 198.228 74.6046 205.082 77.4824C206.054 79.7461 207.464 81.8666 209.312 83.7148L234.663 109.065C235.399 109.801 236.179 110.465 236.994 111.059C239.197 117.164 240.399 123.748 240.399 130.612V166.78C240.399 197.145 215.784 221.761 185.419 221.761H135.675C118.324 221.761 104.258 207.695 104.258 190.344V104.431C104.258 87.0796 118.324 73.0138 135.675 73.0137H182.801Z" fill="#F6ECDE"/>
<g filter="url(#filter1_d_138_421)">
<path d="M209.348 104.594C200.798 96.0444 198.219 83.7869 201.608 72.9985L240.943 112.334C230.155 115.722 217.897 113.143 209.348 104.594Z" fill="url(#paint0_linear_138_421)"/>
</g>
<path d="M216.098 176.278C218.862 181.064 215.408 187.047 209.881 187.047H204.111C202.031 187.047 200.079 186.117 198.588 184.667C191.609 177.873 182.078 173.688 171.569 173.688C161.059 173.688 151.528 177.873 144.548 184.667C143.058 186.117 141.105 187.047 139.025 187.047H132.936C127.409 187.047 123.955 181.064 126.719 176.278L165.191 109.642C167.954 104.856 174.863 104.856 177.626 109.642L216.098 176.278Z" fill="url(#paint1_linear_138_421)"/>
</g>
<path d="M433.355 33.9491C463.122 33.9491 487.928 44.3883 507.772 65.2665C527.824 86.1447 537.849 111.881 537.849 142.475C537.849 173.068 527.824 198.804 507.772 219.683C487.928 240.561 463.122 251 433.355 251H347.155V33.9491H433.355ZM433.355 210.07C452.166 210.07 467.463 203.869 479.246 191.466C491.028 178.856 496.92 162.526 496.92 142.475C496.92 122.423 491.028 106.196 479.246 93.7932C467.463 81.1835 452.166 74.8787 433.355 74.8787H389.945V210.07H433.355ZM600.14 189.916C605.515 209.347 620.088 219.063 643.86 219.063C659.157 219.063 670.733 213.895 678.588 203.559L710.836 222.163C695.539 244.282 673.007 255.341 643.24 255.341C617.607 255.341 597.039 247.589 581.536 232.086C566.032 216.582 558.28 197.047 558.28 173.482C558.28 150.123 565.929 130.692 581.226 115.188C596.523 99.4778 616.16 91.6227 640.139 91.6227C662.878 91.6227 681.586 99.4778 696.263 115.188C711.146 130.899 718.588 150.33 718.588 173.482C718.588 178.65 718.071 184.128 717.037 189.916H600.14ZM599.52 158.908H678.588C676.315 148.366 671.56 140.511 664.325 135.343C657.297 130.175 649.235 127.591 640.139 127.591C629.39 127.591 620.502 130.382 613.473 135.963C606.445 141.338 601.794 148.986 599.52 158.908ZM842.469 95.9637H886.499L827.586 251H782.005L723.091 95.9637H767.121L804.64 204.489L842.469 95.9637ZM1047.18 251L1034.16 211.931H947.647L934.624 251H888.423L964.391 33.9491H1017.41L1093.69 251H1047.18ZM961.29 171.931H1020.82L991.057 83.2507L961.29 171.931ZM1277.66 64.9564C1255.75 63.3027 1244.8 72.0881 1244.8 91.3126V95.9637H1277.66V134.413H1244.8V251H1204.8V134.413H1158.91V251H1118.91V134.413H1096.58V95.9637H1118.91V94.4133C1118.91 72.5015 1125 55.861 1137.2 44.4916C1149.4 33.1223 1167.59 28.1611 1191.77 29.6081V68.0571C1169.86 66.4034 1158.91 75.1888 1158.91 94.4133V95.9637H1204.8V91.3126C1204.8 69.4008 1210.89 52.7602 1223.09 41.3909C1235.49 30.0216 1253.68 25.0604 1277.66 26.5074V64.9564ZM1408.18 95.9637H1448.18V251H1408.18V232.706C1396.19 247.796 1379.34 255.341 1357.64 255.341C1336.96 255.341 1319.19 247.486 1304.3 231.775C1289.63 215.858 1282.29 196.427 1282.29 173.482C1282.29 150.536 1289.63 131.209 1304.3 115.498C1319.19 99.5812 1336.96 91.6227 1357.64 91.6227C1379.34 91.6227 1396.19 99.1678 1408.18 114.258V95.9637ZM1334.38 205.109C1342.44 213.171 1352.67 217.202 1365.08 217.202C1377.48 217.202 1387.71 213.171 1395.77 205.109C1404.04 196.841 1408.18 186.298 1408.18 173.482C1408.18 160.666 1404.04 150.226 1395.77 142.165C1387.71 133.896 1377.48 129.762 1365.08 129.762C1352.67 129.762 1342.44 133.896 1334.38 142.165C1326.32 150.226 1322.29 160.666 1322.29 173.482C1322.29 186.298 1326.32 196.841 1334.38 205.109ZM1504.29 77.3593C1497.68 77.3593 1491.89 74.9821 1486.93 70.2277C1482.17 65.2665 1479.8 59.4785 1479.8 52.8636C1479.8 46.2487 1482.17 40.4607 1486.93 35.4995C1491.89 30.5383 1497.68 28.0578 1504.29 28.0578C1511.11 28.0578 1516.9 30.5383 1521.66 35.4995C1526.62 40.4607 1529.1 46.2487 1529.1 52.8636C1529.1 59.4785 1526.62 65.2665 1521.66 70.2277C1516.9 74.9821 1511.11 77.3593 1504.29 77.3593ZM1484.45 251V95.9637H1524.45V251H1484.45ZM1601.06 122.63C1604.78 112.708 1610.88 105.266 1619.35 100.305C1628.03 95.3435 1637.65 92.8629 1648.19 92.8629V137.513C1635.99 136.066 1625.04 138.547 1615.32 144.955C1605.81 151.363 1601.06 162.009 1601.06 176.893V251H1561.06V95.9637H1601.06V122.63ZM1703.64 139.994C1703.64 144.128 1706.32 147.539 1711.7 150.226C1717.28 152.707 1724 154.981 1731.85 157.048C1739.71 158.908 1747.56 161.389 1755.42 164.49C1763.27 167.384 1769.89 172.345 1775.26 179.373C1780.84 186.402 1783.63 195.187 1783.63 205.729C1783.63 221.646 1777.64 233.946 1765.65 242.628C1753.87 251.103 1739.09 255.341 1721.31 255.341C1689.48 255.341 1667.77 243.041 1656.19 218.442L1690.92 198.908C1695.47 212.344 1705.6 219.063 1721.31 219.063C1735.57 219.063 1742.7 214.618 1742.7 205.729C1742.7 201.595 1739.91 198.288 1734.33 195.807C1728.96 193.12 1722.34 190.743 1714.49 188.675C1706.63 186.608 1698.78 184.024 1690.92 180.924C1683.07 177.823 1676.35 172.965 1670.77 166.35C1665.39 159.529 1662.71 151.053 1662.71 140.924C1662.71 125.627 1668.29 113.638 1679.45 104.956C1690.82 96.067 1704.88 91.6227 1721.62 91.6227C1734.23 91.6227 1745.7 94.5167 1756.04 100.305C1766.37 105.886 1774.54 113.948 1780.53 124.49L1746.43 143.095C1741.46 132.552 1733.2 127.281 1721.62 127.281C1716.45 127.281 1712.11 128.418 1708.6 130.692C1705.29 132.966 1703.64 136.066 1703.64 139.994Z" fill="url(#paint2_linear_138_421)"/>
</g>
<path d="M0 0V1H1827V0V-1H0V0Z" fill="#EBEAEA" mask="url(#path-1-inside-1_138_421)"/>
<defs>
<filter id="filter0_d_138_421" x="96.3339" y="65.0741" width="152.531" height="164.612" filterUnits="userSpaceOnUse" color-interpolation-filters="sRGB">
<feFlood flood-opacity="0" result="BackgroundImageFix"/>
<feColorMatrix in="SourceAlpha" type="matrix" values="0 0 0 0 0 0 0 0 0 0 0 0 0 0 0 0 0 0 127 0" result="hardAlpha"/>
<feOffset/>
<feGaussianBlur stdDeviation="3.96197"/>
<feComposite in2="hardAlpha" operator="out"/>
<feColorMatrix type="matrix" values="0 0 0 0 0.0833333 0 0 0 0 0.0833333 0 0 0 0 0.0833333 0 0 0 1 0"/>
<feBlend mode="normal" in2="BackgroundImageFix" result="effect1_dropShadow_138_421"/>
<feBlend mode="normal" in="SourceGraphic" in2="effect1_dropShadow_138_421" result="shape"/>
</filter>
<filter id="filter1_d_138_421" x="197.262" y="70.0957" width="46.582" height="46.5839" filterUnits="userSpaceOnUse" color-interpolation-filters="sRGB">
<feFlood flood-opacity="0" result="BackgroundImageFix"/>
<feColorMatrix in="SourceAlpha" type="matrix" values="0 0 0 0 0 0 0 0 0 0 0 0 0 0 0 0 0 0 127 0" result="hardAlpha"/>
<feOffset/>
<feGaussianBlur stdDeviation="1.45116"/>
<feComposite in2="hardAlpha" operator="out"/>
<feColorMatrix type="matrix" values="0 0 0 0 0.0833333 0 0 0 0 0.0833333 0 0 0 0 0.0833333 0 0 0 1 0"/>
<feBlend mode="normal" in2="BackgroundImageFix" result="effect1_dropShadow_138_421"/>
<feBlend mode="normal" in="SourceGraphic" in2="effect1_dropShadow_138_421" result="shape"/>
</filter>
<linearGradient id="paint0_linear_138_421" x1="209.348" y1="104.594" x2="221.275" y2="92.6663" gradientUnits="userSpaceOnUse">
<stop stop-color="#FF7608"/>
<stop offset="1" stop-color="#FA4300"/>
</linearGradient>
<linearGradient id="paint1_linear_138_421" x1="171.408" y1="106.053" x2="171.408" y2="187.047" gradientUnits="userSpaceOnUse">
<stop stop-color="#0CAEFF"/>
<stop offset="1" stop-color="#1300C1"/>
</linearGradient>
<linearGradient id="paint2_linear_138_421" x1="1061" y1="251" x2="1061" y2="30" gradientUnits="userSpaceOnUse">
<stop stop-color="#484848"/>
<stop offset="1" stop-color="#AEAEAE"/>
</linearGradient>
<clipPath id="clip0_138_421">
<path d="M0 0H1827V294H0V0Z" fill="white"/>
</clipPath>
</defs>
</svg>
